<svg id="svg" xmlns="http://www.w3.org/2000/svg" xmlns:xlink="http://www.w3.org/1999/xlink" width="400" height="58.82352941176471" viewBox="0, 0, 400,58.82352941176471" version="1.1"><g id="svgg"><path id="path0" d="M221.500 0.250 C 221.500 0.542,221.519 0.539,219.625 0.507 L 218.167 0.482 218.142 0.950 C 218.129 1.206,218.101 1.717,218.080 2.083 C 218.005 3.385,218.182 4.368,218.505 4.453 C 218.722 4.510,218.838 4.759,218.918 5.340 C 219.007 5.992,219.097 6.157,219.382 6.199 C 219.601 6.230,219.774 6.410,219.833 6.667 C 219.894 6.926,220.066 7.103,220.288 7.135 C 220.508 7.167,220.666 7.328,220.698 7.552 C 220.731 7.783,220.888 7.936,221.125 7.970 C 221.356 8.003,221.500 8.139,221.500 8.325 C 221.500 8.645,221.935 8.827,222.708 8.831 C 223.053 8.833,223.167 8.915,223.167 9.163 C 223.167 9.651,223.493 9.682,228.083 9.630 C 232.232 9.584,232.250 9.582,232.302 9.217 C 232.346 8.908,232.477 8.843,233.135 8.800 C 233.800 8.758,233.925 8.694,233.970 8.375 C 234.008 8.104,234.135 8.000,234.428 8.000 C 234.749 8.000,234.833 7.913,234.833 7.583 C 234.833 7.250,234.917 7.167,235.250 7.167 C 235.583 7.167,235.667 7.083,235.667 6.750 C 235.667 6.417,235.750 6.333,236.083 6.333 C 236.422 6.333,236.500 6.252,236.500 5.894 C 236.500 5.640,236.675 5.292,236.917 5.069 C 237.318 4.696,237.333 4.608,237.333 2.591 L 237.333 0.500 235.667 0.500 C 234.296 0.500,234.000 0.456,234.000 0.250 C 234.000 0.044,233.704 0.000,232.333 0.000 L 230.667 0.000 230.667 0.655 C 230.667 1.208,230.608 1.318,230.292 1.363 C 229.972 1.409,229.909 1.533,229.866 2.208 L 229.815 3.000 228.169 3.000 C 226.589 3.000,226.521 2.985,226.470 2.625 C 226.436 2.387,226.283 2.231,226.050 2.198 C 225.741 2.154,225.676 2.023,225.634 1.365 C 225.591 0.700,225.527 0.575,225.208 0.530 C 225.002 0.501,224.833 0.370,224.833 0.238 C 224.833 -0.153,222.218 -0.102,222.115 0.292 C 222.042 0.569,222.038 0.569,222.019 0.292 C 221.996 -0.063,221.500 -0.103,221.500 0.250 M81.167 11.745 C 81.167 12.153,80.453 12.281,78.875 12.157 C 78.806 12.151,78.709 12.320,78.660 12.532 C 78.584 12.856,78.447 12.925,77.786 12.967 C 77.113 13.011,76.987 13.076,76.899 13.426 C 76.800 13.820,76.540 13.918,75.792 13.842 C 75.618 13.824,75.436 13.980,75.342 14.227 C 75.250 14.470,75.026 14.664,74.801 14.696 C 74.519 14.736,74.427 14.848,74.454 15.115 C 74.484 15.399,74.392 15.490,74.038 15.531 C 73.718 15.568,73.568 15.691,73.531 15.948 C 73.499 16.175,73.342 16.332,73.115 16.365 C 72.888 16.397,72.730 16.554,72.698 16.781 C 72.666 17.009,72.509 17.166,72.281 17.198 C 72.028 17.234,71.901 17.384,71.866 17.691 C 71.835 17.959,71.688 18.166,71.495 18.216 C 71.274 18.274,71.143 18.505,71.069 18.970 C 70.985 19.492,70.874 19.662,70.564 19.740 C 70.222 19.826,70.167 19.940,70.167 20.560 C 70.167 21.166,70.101 21.310,69.750 21.470 C 69.364 21.646,69.333 21.744,69.333 22.818 C 69.333 23.893,69.306 23.981,68.958 24.030 L 68.583 24.083 68.540 30.716 C 68.496 37.396,68.541 38.000,69.089 38.000 C 69.280 38.000,69.333 38.254,69.333 39.170 C 69.333 40.251,69.365 40.355,69.742 40.527 C 70.076 40.679,70.159 40.853,70.200 41.481 C 70.242 42.133,70.307 42.258,70.625 42.303 C 70.876 42.339,71.000 42.471,71.000 42.701 C 71.000 42.890,71.188 43.219,71.417 43.431 C 71.646 43.644,71.833 43.927,71.833 44.062 C 71.833 44.524,72.036 44.833,72.340 44.833 C 72.528 44.833,72.664 44.976,72.697 45.208 C 72.730 45.446,72.884 45.602,73.115 45.635 C 73.342 45.668,73.499 45.825,73.531 46.052 C 73.568 46.310,73.718 46.432,74.042 46.469 C 74.355 46.505,74.500 46.618,74.500 46.827 C 74.500 47.183,74.817 47.333,75.569 47.333 C 76.023 47.333,76.108 47.394,76.097 47.708 C 76.085 48.039,76.176 48.089,76.859 48.133 C 77.524 48.176,77.649 48.242,77.737 48.592 C 77.831 48.965,77.922 49.000,78.795 49.005 C 79.724 49.010,80.333 49.261,80.333 49.638 C 80.333 49.771,82.333 49.825,87.377 49.830 L 94.420 49.836 94.585 49.460 C 94.724 49.143,94.896 49.077,95.667 49.042 C 97.158 48.974,97.639 48.850,97.749 48.503 C 97.826 48.260,98.035 48.172,98.633 48.134 L 99.417 48.083 99.417 46.083 C 99.417 44.148,99.405 44.082,99.049 44.031 C 98.718 43.984,98.677 43.869,98.632 42.864 C 98.590 41.893,98.535 41.729,98.208 41.585 C 97.895 41.448,97.833 41.290,97.833 40.627 L 97.833 39.833 96.670 39.833 C 95.568 39.833,95.501 39.855,95.402 40.250 C 95.308 40.624,95.213 40.667,94.472 40.667 C 93.971 40.667,93.687 40.731,93.749 40.831 C 93.806 40.923,93.744 40.955,93.609 40.904 C 93.476 40.852,93.265 40.958,93.138 41.140 C 92.927 41.441,92.683 41.472,90.245 41.505 C 84.387 41.586,83.696 41.546,83.637 41.125 C 83.598 40.856,83.453 40.735,83.125 40.697 C 82.869 40.668,82.667 40.542,82.667 40.411 C 82.667 40.114,82.146 39.833,81.594 39.833 C 81.249 39.833,81.167 39.753,81.167 39.417 C 81.167 39.083,81.083 39.000,80.750 39.000 C 80.521 39.000,80.324 38.906,80.313 38.792 C 80.301 38.677,80.276 38.396,80.258 38.167 C 80.239 37.938,80.211 37.656,80.195 37.542 C 80.179 37.427,79.979 37.333,79.750 37.333 C 79.311 37.333,79.285 37.271,79.327 36.325 C 79.349 35.847,79.272 35.690,78.927 35.506 L 78.500 35.277 78.500 30.389 L 78.500 25.500 78.917 25.500 C 79.305 25.500,79.333 25.444,79.333 24.678 C 79.333 23.905,79.361 23.852,79.792 23.803 C 80.116 23.765,80.265 23.643,80.302 23.383 C 80.331 23.181,80.492 22.972,80.660 22.919 C 80.842 22.861,81.008 22.596,81.070 22.261 C 81.196 21.590,81.417 21.382,82.083 21.306 C 82.449 21.265,82.597 21.152,82.635 20.885 C 82.672 20.630,82.822 20.505,83.135 20.468 C 83.453 20.432,83.599 20.308,83.637 20.042 L 83.690 19.667 87.928 19.667 C 91.615 19.667,92.167 19.700,92.167 19.921 C 92.167 20.253,92.840 20.500,93.743 20.500 C 94.373 20.500,94.477 20.553,94.568 20.917 C 94.732 21.570,97.000 21.565,97.000 20.911 C 97.000 20.662,97.119 20.446,97.292 20.382 C 97.743 20.215,97.828 19.991,97.831 18.958 C 97.833 18.048,97.854 18.000,98.250 18.000 C 98.657 18.000,98.667 17.972,98.667 16.750 C 98.667 15.528,98.676 15.500,99.083 15.500 C 99.472 15.500,99.500 15.444,99.500 14.667 C 99.500 13.889,99.472 13.833,99.083 13.833 C 98.750 13.833,98.667 13.750,98.667 13.417 C 98.667 13.029,98.610 13.000,97.845 13.000 C 97.120 13.000,97.017 12.956,96.970 12.625 C 96.921 12.281,96.817 12.246,95.719 12.201 C 94.628 12.157,94.517 12.120,94.469 11.785 L 94.417 11.417 87.792 11.370 L 81.167 11.324 81.167 11.745 M113.927 11.483 C 113.875 11.567,113.877 11.753,113.931 11.894 C 114.014 12.111,113.822 12.160,112.723 12.201 C 111.512 12.246,111.413 12.278,111.363 12.625 C 111.316 12.956,111.214 13.000,110.488 13.000 C 109.728 13.000,109.667 13.030,109.667 13.407 C 109.667 13.767,109.584 13.820,108.958 13.865 C 108.411 13.905,108.213 14.002,108.085 14.292 C 107.985 14.522,107.775 14.667,107.544 14.667 C 107.253 14.667,107.167 14.762,107.167 15.083 C 107.167 15.417,107.083 15.500,106.750 15.500 C 106.417 15.500,106.333 15.583,106.333 15.917 C 106.333 16.250,106.250 16.333,105.917 16.333 C 105.587 16.333,105.500 16.417,105.500 16.738 C 105.500 17.032,105.396 17.158,105.125 17.197 C 104.856 17.235,104.735 17.380,104.697 17.708 C 104.668 17.965,104.542 18.167,104.411 18.167 C 104.117 18.167,103.833 18.686,103.833 19.227 C 103.833 19.532,103.733 19.658,103.458 19.697 C 103.138 19.742,103.076 19.866,103.033 20.541 C 102.989 21.227,102.926 21.345,102.564 21.437 C 102.170 21.535,102.147 21.603,102.169 22.562 C 102.203 24.017,102.208 24.000,101.753 24.000 L 101.339 24.000 101.341 30.750 C 101.344 37.866,101.353 38.000,101.851 38.000 C 102.131 38.000,102.167 38.133,102.167 39.170 C 102.167 40.251,102.198 40.355,102.575 40.527 C 102.909 40.679,102.993 40.853,103.033 41.481 C 103.076 42.133,103.140 42.258,103.458 42.303 C 103.721 42.341,103.833 42.469,103.833 42.733 C 103.833 42.939,104.017 43.281,104.241 43.491 C 104.465 43.702,104.671 44.071,104.699 44.312 C 104.735 44.620,104.862 44.766,105.125 44.803 C 105.396 44.842,105.500 44.968,105.500 45.262 C 105.500 45.579,105.587 45.667,105.905 45.667 C 106.198 45.667,106.325 45.770,106.363 46.042 C 106.396 46.268,106.550 46.436,106.755 46.465 C 106.941 46.492,107.166 46.679,107.255 46.882 C 107.379 47.164,107.582 47.262,108.125 47.301 C 108.751 47.347,108.833 47.400,108.833 47.760 C 108.833 48.137,108.894 48.167,109.667 48.167 C 110.447 48.167,110.500 48.193,110.500 48.588 C 110.500 48.996,110.534 49.009,111.495 48.980 C 112.503 48.950,113.000 49.156,113.000 49.605 C 113.000 49.798,114.166 49.835,120.129 49.830 L 127.258 49.824 127.421 49.454 C 127.563 49.131,127.744 49.073,128.833 49.000 C 130.156 48.912,130.500 48.791,130.500 48.416 C 130.500 48.254,130.764 48.169,131.375 48.134 L 132.250 48.083 132.250 46.083 C 132.250 44.136,132.240 44.082,131.875 44.030 C 131.535 43.982,131.500 43.886,131.500 43.000 C 131.500 42.070,131.246 41.500,130.831 41.500 C 130.750 41.500,130.662 41.144,130.634 40.708 L 130.583 39.917 129.417 39.917 C 128.334 39.917,128.246 39.944,128.197 40.292 C 128.150 40.623,128.047 40.667,127.314 40.667 C 126.660 40.667,126.400 40.752,126.084 41.068 C 125.653 41.498,124.409 41.571,118.375 41.518 L 116.333 41.500 116.333 41.083 C 116.333 40.750,116.250 40.667,115.917 40.667 C 115.662 40.667,115.500 40.572,115.500 40.423 C 115.500 40.100,114.978 39.833,114.344 39.833 C 113.910 39.833,113.833 39.771,113.833 39.417 C 113.833 39.083,113.750 39.000,113.417 39.000 C 113.028 39.000,113.000 38.944,113.000 38.167 C 113.000 37.389,112.972 37.333,112.583 37.333 C 112.197 37.333,112.167 37.275,112.167 36.540 C 112.167 35.876,112.105 35.719,111.792 35.581 L 111.417 35.417 111.373 30.458 L 111.328 25.500 111.748 25.500 C 112.139 25.500,112.167 25.446,112.167 24.667 C 112.167 23.889,112.194 23.833,112.583 23.833 C 112.905 23.833,113.000 23.747,113.000 23.456 C 113.000 23.225,113.145 23.015,113.375 22.915 C 113.629 22.803,113.766 22.580,113.801 22.221 C 113.862 21.591,114.079 21.382,114.750 21.306 C 115.075 21.270,115.308 21.119,115.415 20.875 C 115.515 20.645,115.725 20.500,115.956 20.500 C 116.246 20.500,116.333 20.405,116.333 20.089 L 116.333 19.678 120.517 19.631 L 124.700 19.583 124.994 19.988 C 125.236 20.320,125.469 20.405,126.302 20.465 C 127.182 20.529,127.322 20.586,127.366 20.894 C 127.450 21.484,129.833 21.532,129.833 20.944 C 129.833 20.715,129.990 20.437,130.196 20.300 C 130.484 20.108,130.573 19.853,130.632 19.039 C 130.696 18.152,130.752 18.011,131.061 17.967 C 131.381 17.922,131.422 17.796,131.465 16.719 C 131.510 15.628,131.547 15.517,131.882 15.469 C 132.432 15.391,132.435 13.943,131.885 13.865 C 131.658 13.832,131.501 13.675,131.469 13.448 C 131.425 13.141,131.293 13.075,130.635 13.033 C 129.977 12.990,129.846 12.925,129.802 12.616 C 129.755 12.284,129.641 12.245,128.578 12.202 C 127.554 12.160,127.386 12.107,127.245 11.785 L 127.083 11.417 120.553 11.373 C 116.699 11.347,113.983 11.392,113.927 11.483 M4.306 12.583 C 4.092 12.809,3.795 12.996,3.645 12.997 C 2.994 13.004,2.997 12.907,3.041 31.185 L 3.083 48.917 8.042 48.961 L 13.000 49.005 13.000 43.169 L 13.000 37.333 17.792 37.331 C 22.644 37.328,22.859 37.306,23.046 36.799 C 23.127 36.578,23.398 36.505,24.283 36.466 C 25.267 36.423,25.438 36.368,25.578 36.049 C 25.704 35.761,25.902 35.671,26.495 35.633 C 27.121 35.592,27.259 35.522,27.301 35.226 C 27.341 34.942,27.505 34.845,28.093 34.757 C 28.567 34.686,28.833 34.562,28.833 34.411 C 28.833 34.281,29.058 34.059,29.333 33.917 C 29.633 33.762,29.833 33.526,29.833 33.329 C 29.833 33.117,29.946 33.000,30.149 33.000 C 30.516 33.000,30.667 32.689,30.667 31.931 C 30.667 31.477,30.727 31.392,31.042 31.403 C 31.378 31.415,31.422 31.327,31.467 30.552 C 31.510 29.807,31.567 29.680,31.883 29.635 L 32.250 29.583 32.294 24.712 L 32.338 19.841 31.919 19.736 C 31.543 19.641,31.500 19.547,31.500 18.815 C 31.500 18.062,31.469 18.000,31.092 18.000 C 30.725 18.000,30.680 17.923,30.634 17.208 C 30.591 16.540,30.527 16.409,30.219 16.365 C 29.991 16.332,29.834 16.175,29.802 15.948 C 29.771 15.731,29.613 15.564,29.412 15.535 C 29.225 15.508,29.000 15.321,28.912 15.118 C 28.788 14.838,28.584 14.738,28.052 14.699 C 27.479 14.658,27.345 14.583,27.302 14.283 C 27.258 13.974,27.127 13.909,26.469 13.866 C 25.810 13.824,25.679 13.759,25.635 13.450 C 25.588 13.116,25.475 13.079,24.376 13.034 C 23.252 12.989,23.162 12.957,23.067 12.576 L 22.964 12.167 13.830 12.170 L 4.696 12.172 4.306 12.583 M34.096 13.206 C 34.129 14.667,34.129 14.667,34.500 14.667 C 34.849 14.667,34.871 14.722,34.899 15.664 C 34.912 16.098,34.998 16.261,35.238 16.307 C 35.566 16.370,36.137 16.833,35.887 16.833 C 35.505 16.833,35.762 17.905,36.167 18.000 C 36.525 18.085,36.583 18.192,36.583 18.765 C 36.583 19.498,37.032 20.333,37.426 20.333 C 37.622 20.333,37.641 20.404,37.509 20.650 C 37.282 21.073,37.602 22.000,37.975 22.001 C 38.181 22.002,38.260 22.179,38.290 22.709 C 38.328 23.377,38.709 23.930,39.006 23.746 C 39.074 23.705,39.126 23.763,39.122 23.877 C 39.086 24.852,39.190 25.184,39.583 25.364 C 39.858 25.489,40.000 25.689,40.000 25.951 C 40.000 26.170,40.188 26.536,40.417 26.765 C 40.646 26.994,40.833 27.366,40.833 27.591 C 40.833 27.914,40.919 28.000,41.241 28.000 C 41.616 28.000,41.653 28.071,41.700 28.875 C 41.746 29.679,41.783 29.750,42.161 29.753 C 42.546 29.757,42.569 29.806,42.524 30.539 C 42.479 31.257,42.510 31.330,42.904 31.428 C 43.283 31.524,43.333 31.621,43.333 32.265 C 43.333 32.903,43.385 33.007,43.750 33.098 C 44.071 33.179,44.167 33.311,44.167 33.671 C 44.167 34.357,44.328 34.667,44.684 34.667 C 44.924 34.667,45.000 34.787,45.000 35.167 C 45.000 35.586,45.066 35.667,45.408 35.667 C 45.775 35.667,45.820 35.744,45.866 36.458 C 45.909 37.134,45.972 37.258,46.292 37.303 C 46.609 37.348,46.667 37.459,46.667 38.017 C 46.667 38.546,46.741 38.707,47.042 38.828 L 47.417 38.979 47.042 38.989 C 46.756 38.997,46.667 39.099,46.667 39.417 C 46.667 39.750,46.583 39.833,46.250 39.833 C 45.917 39.833,45.833 39.917,45.833 40.250 C 45.833 40.631,45.617 40.764,45.125 40.686 C 45.056 40.676,45.000 40.851,45.000 41.076 C 45.000 41.465,44.945 41.487,43.875 41.534 C 41.273 41.648,38.167 41.492,38.167 41.247 C 38.167 40.626,36.708 40.586,36.645 41.205 C 36.633 41.321,36.612 41.636,36.597 41.905 C 36.583 42.173,36.479 42.424,36.366 42.461 C 35.915 42.612,35.717 43.415,35.750 44.958 C 35.782 46.454,35.772 46.500,35.409 46.500 C 34.963 46.500,34.833 46.782,34.833 47.750 C 34.833 48.883,34.928 49.000,35.840 49.000 C 36.546 49.000,36.650 49.045,36.697 49.375 L 36.750 49.750 42.500 49.750 L 48.250 49.750 48.303 49.375 C 48.350 49.044,48.453 49.000,49.178 49.000 C 49.939 49.000,50.000 48.970,50.000 48.592 C 50.000 48.225,50.077 48.180,50.792 48.134 C 51.467 48.091,51.591 48.028,51.637 47.708 C 51.675 47.437,51.802 47.333,52.095 47.333 C 52.416 47.333,52.500 47.247,52.500 46.917 C 52.500 46.583,52.583 46.500,52.917 46.500 C 53.247 46.500,53.333 46.416,53.333 46.095 C 53.333 45.802,53.437 45.675,53.708 45.637 C 53.935 45.604,54.102 45.450,54.132 45.245 C 54.158 45.059,54.346 44.834,54.548 44.745 C 54.831 44.621,54.929 44.418,54.968 43.875 C 55.013 43.249,55.066 43.167,55.426 43.167 C 55.747 43.167,55.833 43.080,55.833 42.758 C 55.833 42.533,56.021 42.161,56.250 41.932 C 56.497 41.685,56.667 41.324,56.667 41.047 C 56.667 40.722,56.781 40.529,57.042 40.415 C 57.364 40.273,57.424 40.104,57.466 39.208 C 57.513 38.227,57.540 38.167,57.925 38.167 C 58.303 38.167,58.333 38.106,58.333 37.345 C 58.333 36.620,58.377 36.517,58.708 36.470 C 59.035 36.424,59.090 36.304,59.134 35.542 C 59.180 34.738,59.217 34.667,59.592 34.667 C 59.896 34.667,60.006 34.572,60.025 34.292 C 60.039 34.085,60.068 33.842,60.089 33.750 C 60.111 33.658,60.137 33.338,60.147 33.038 C 60.162 32.619,60.263 32.455,60.581 32.334 C 60.948 32.195,60.989 32.092,60.950 31.422 C 60.921 30.918,60.973 30.667,61.108 30.667 C 61.486 30.667,61.800 30.177,61.800 29.587 C 61.800 29.185,61.914 28.904,62.157 28.707 C 62.507 28.423,62.632 27.963,62.655 26.875 C 62.664 26.459,62.740 26.333,62.982 26.333 C 63.352 26.333,63.500 26.022,63.500 25.245 C 63.500 24.936,63.602 24.623,63.726 24.550 C 64.108 24.324,64.333 23.723,64.333 22.928 C 64.333 22.293,64.386 22.167,64.647 22.167 C 65.023 22.167,65.161 21.736,65.164 20.553 C 65.166 19.786,65.208 19.684,65.542 19.637 C 65.876 19.589,65.926 19.467,66.000 18.500 C 66.071 17.579,66.139 17.392,66.458 17.252 C 66.779 17.112,66.833 16.960,66.833 16.210 C 66.833 15.589,66.898 15.333,67.057 15.333 C 67.428 15.333,67.667 14.549,67.667 13.325 L 67.667 12.167 62.587 12.167 L 57.508 12.167 57.609 12.670 C 57.686 13.054,57.656 13.153,57.480 13.088 C 56.966 12.899,56.785 13.278,56.763 14.585 C 56.744 15.737,56.699 15.904,56.329 16.203 C 55.888 16.561,55.719 17.706,56.045 18.125 C 56.154 18.264,56.146 18.333,56.020 18.333 C 55.918 18.333,55.833 18.428,55.833 18.544 C 55.833 18.660,55.665 18.828,55.458 18.919 C 55.120 19.067,55.085 19.192,55.102 20.208 C 55.116 21.027,55.063 21.333,54.906 21.333 C 54.412 21.333,54.208 21.807,54.242 22.874 C 54.272 23.824,54.242 23.936,53.945 23.958 C 53.461 23.995,53.339 24.294,53.336 25.447 C 53.334 26.387,53.301 26.481,52.958 26.530 C 52.614 26.579,52.579 26.683,52.534 27.792 C 52.487 28.950,52.469 29.000,52.076 29.000 C 51.697 29.000,51.667 28.939,51.667 28.185 C 51.667 27.454,51.623 27.359,51.250 27.265 C 50.886 27.173,50.833 27.069,50.833 26.438 C 50.833 25.898,50.728 25.602,50.417 25.266 C 50.164 24.993,50.000 24.619,50.000 24.314 C 50.000 23.688,49.732 23.167,49.411 23.167 C 49.240 23.167,49.166 22.978,49.164 22.542 C 49.161 21.838,49.047 21.607,48.625 21.451 C 48.406 21.371,48.333 21.156,48.333 20.592 C 48.333 19.933,48.283 19.827,47.925 19.737 C 47.575 19.649,47.510 19.524,47.467 18.859 C 47.424 18.200,47.360 18.075,47.042 18.030 C 46.714 17.983,46.667 17.879,46.667 17.195 C 46.667 16.543,46.604 16.385,46.292 16.248 C 45.986 16.114,45.901 15.913,45.832 15.167 C 45.738 14.155,45.597 13.833,45.249 13.833 C 45.092 13.833,45.002 13.581,44.967 13.042 L 44.917 12.250 39.495 12.206 L 34.073 12.162 34.096 13.206 M135.907 12.384 C 135.865 12.494,135.850 20.758,135.874 30.750 L 135.917 48.917 140.875 48.961 L 145.833 49.005 145.833 41.919 L 145.833 34.833 146.250 34.833 C 146.586 34.833,146.667 34.916,146.667 35.261 C 146.667 35.820,146.949 36.333,147.256 36.333 C 147.491 36.333,147.569 36.521,147.514 36.954 C 147.499 37.066,147.674 37.204,147.901 37.261 C 148.155 37.325,148.334 37.504,148.365 37.724 C 148.398 37.949,148.556 38.103,148.792 38.137 C 149.063 38.175,149.167 38.302,149.167 38.595 C 149.167 38.916,149.253 39.000,149.583 39.000 C 149.919 39.000,150.000 39.083,150.000 39.424 C 150.000 39.658,150.182 40.030,150.403 40.252 C 150.625 40.474,150.832 40.789,150.863 40.953 C 150.893 41.116,151.084 41.323,151.286 41.412 C 151.488 41.500,151.675 41.725,151.702 41.912 C 151.731 42.116,151.898 42.271,152.125 42.303 C 152.396 42.342,152.500 42.468,152.500 42.762 C 152.500 43.083,152.587 43.167,152.917 43.167 C 153.238 43.167,153.333 43.253,153.333 43.543 C 153.333 43.798,153.490 43.988,153.822 44.135 C 154.182 44.294,154.293 44.442,154.244 44.697 C 154.154 45.166,154.446 45.667,154.811 45.667 C 155.011 45.667,155.105 45.787,155.097 46.031 C 155.087 46.287,155.207 46.426,155.500 46.498 C 155.766 46.563,155.917 46.716,155.917 46.923 C 155.917 47.138,156.062 47.275,156.349 47.332 C 156.692 47.399,156.773 47.503,156.740 47.833 C 156.718 48.063,156.738 48.419,156.784 48.625 L 156.869 49.000 162.685 49.000 L 168.500 49.000 168.500 48.159 C 168.500 47.491,168.417 47.235,168.096 46.914 C 167.873 46.691,167.667 46.338,167.637 46.130 C 167.603 45.891,167.451 45.731,167.228 45.699 C 166.955 45.660,166.848 45.493,166.765 44.974 C 166.690 44.505,166.560 44.274,166.338 44.216 C 166.145 44.166,165.999 43.959,165.968 43.691 C 165.932 43.380,165.806 43.234,165.542 43.197 C 165.291 43.161,165.167 43.029,165.167 42.799 C 165.167 42.610,164.979 42.281,164.750 42.069 C 164.521 41.856,164.333 41.573,164.333 41.438 C 164.333 40.976,164.130 40.667,163.827 40.667 C 163.639 40.667,163.503 40.524,163.470 40.292 C 163.436 40.051,163.283 39.898,163.042 39.863 C 162.795 39.828,162.667 39.696,162.667 39.476 C 162.667 39.292,162.442 38.916,162.167 38.641 C 161.892 38.366,161.667 37.990,161.667 37.805 C 161.667 37.614,161.529 37.433,161.347 37.385 C 161.172 37.339,160.984 37.127,160.931 36.912 C 160.871 36.675,160.687 36.502,160.458 36.470 C 160.212 36.435,160.083 36.302,160.083 36.083 C 160.083 35.844,159.955 35.735,159.625 35.697 C 159.265 35.656,159.167 35.558,159.167 35.239 C 159.167 34.917,159.080 34.833,158.750 34.833 C 158.417 34.833,158.333 34.750,158.333 34.417 C 158.333 34.083,158.250 34.000,157.917 34.000 C 157.596 34.000,157.499 33.913,157.498 33.625 C 157.494 32.985,157.305 32.500,157.060 32.500 C 156.931 32.500,156.751 32.305,156.661 32.067 C 156.570 31.829,156.354 31.597,156.180 31.552 C 156.006 31.506,155.825 31.321,155.778 31.139 C 155.730 30.957,155.542 30.770,155.360 30.722 C 155.177 30.674,154.983 30.455,154.928 30.234 C 154.865 29.986,154.706 29.833,154.508 29.833 C 154.333 29.833,154.142 29.684,154.083 29.500 C 154.025 29.317,153.800 29.123,153.583 29.068 C 153.063 28.938,153.418 28.000,153.988 28.000 C 154.086 28.000,154.167 27.813,154.167 27.583 C 154.167 27.250,154.250 27.167,154.583 27.167 C 154.917 27.167,155.000 27.083,155.000 26.750 C 155.000 26.417,155.083 26.333,155.417 26.333 C 155.750 26.333,155.833 26.250,155.833 25.917 C 155.833 25.578,155.915 25.500,156.269 25.500 C 156.645 25.500,156.694 25.442,156.626 25.083 C 156.556 24.717,156.604 24.667,157.023 24.667 C 157.421 24.667,157.500 24.597,157.500 24.250 C 157.500 23.917,157.583 23.833,157.917 23.833 C 158.250 23.833,158.333 23.750,158.333 23.417 C 158.333 23.083,158.417 23.000,158.750 23.000 C 159.080 23.000,159.167 22.916,159.167 22.594 C 159.167 22.276,159.265 22.177,159.625 22.136 C 159.951 22.099,160.083 21.989,160.084 21.757 C 160.084 21.547,160.232 21.397,160.500 21.334 C 160.759 21.273,160.936 21.100,160.969 20.878 C 161.001 20.658,161.161 20.501,161.385 20.469 C 161.616 20.436,161.770 20.279,161.803 20.042 C 161.837 19.802,161.972 19.667,162.175 19.667 C 162.376 19.667,162.532 19.513,162.598 19.250 C 162.661 19.000,162.822 18.833,163.000 18.833 C 163.174 18.833,163.338 18.669,163.397 18.437 C 163.452 18.218,163.647 18.000,163.832 17.952 C 164.035 17.899,164.167 17.725,164.167 17.510 C 164.167 17.298,164.313 17.102,164.532 17.021 C 164.739 16.944,164.979 16.640,165.085 16.318 C 165.189 16.006,165.437 15.676,165.637 15.585 C 165.854 15.487,166.000 15.270,166.000 15.044 C 166.000 14.753,166.095 14.667,166.417 14.667 C 166.750 14.667,166.833 14.583,166.833 14.250 C 166.833 13.917,166.917 13.833,167.250 13.833 C 167.639 13.833,167.667 13.778,167.667 13.000 L 167.667 12.167 161.837 12.167 L 156.006 12.167 155.902 12.583 C 155.837 12.842,155.679 13.000,155.485 13.000 C 155.291 13.000,155.133 13.158,155.068 13.417 C 155.005 13.671,154.845 13.833,154.660 13.833 C 154.349 13.833,154.070 14.375,154.239 14.650 C 154.291 14.734,154.181 14.762,153.994 14.713 C 153.728 14.644,153.610 14.739,153.457 15.146 C 153.349 15.432,153.162 15.667,153.043 15.667 C 152.923 15.667,152.753 15.857,152.664 16.090 C 152.576 16.322,152.315 16.687,152.085 16.900 C 151.855 17.114,151.667 17.448,151.667 17.644 C 151.667 17.913,151.564 18.000,151.250 18.000 C 150.917 18.000,150.833 18.083,150.833 18.417 C 150.833 18.750,150.750 18.833,150.417 18.833 C 150.083 18.833,150.000 18.917,150.000 19.250 C 150.000 19.580,149.916 19.667,149.594 19.667 C 149.276 19.667,149.177 19.765,149.136 20.125 C 149.094 20.488,149.006 20.575,148.708 20.544 C 148.393 20.510,148.333 20.584,148.333 21.013 C 148.333 21.448,148.284 21.507,147.998 21.416 C 147.724 21.329,147.645 21.402,147.562 21.816 C 147.484 22.204,147.379 22.314,147.111 22.286 C 146.860 22.260,146.737 22.366,146.673 22.667 C 146.611 22.955,146.468 23.087,146.208 23.097 L 145.833 23.110 145.833 17.634 L 145.833 12.159 140.908 12.172 C 137.249 12.181,135.963 12.236,135.907 12.384 M171.202 12.364 C 170.910 12.657,170.908 48.508,171.200 48.800 C 171.495 49.095,180.359 49.086,180.321 48.792 C 180.264 48.357,180.344 48.203,180.667 48.118 C 180.855 48.069,181.009 47.880,181.021 47.682 C 181.032 47.490,181.051 47.165,181.063 46.958 C 181.076 46.707,181.204 46.566,181.450 46.531 C 181.784 46.484,182.050 46.084,181.986 45.726 C 181.890 45.192,182.034 44.852,182.375 44.803 C 182.622 44.768,182.769 44.616,182.806 44.356 C 182.836 44.139,183.002 43.925,183.173 43.880 C 183.394 43.822,183.517 43.584,183.595 43.066 C 183.677 42.516,183.778 42.333,184.001 42.333 C 184.294 42.333,184.500 42.022,184.500 41.578 C 184.500 41.453,184.688 41.148,184.917 40.901 C 185.146 40.654,185.333 40.312,185.333 40.142 C 185.333 39.950,185.453 39.833,185.649 39.833 C 186.018 39.833,186.167 39.522,186.167 38.748 C 186.167 38.296,186.238 38.180,186.542 38.137 C 186.768 38.104,186.936 37.950,186.965 37.745 C 186.992 37.559,187.179 37.334,187.382 37.245 C 187.633 37.135,187.767 36.910,187.802 36.538 C 187.837 36.183,187.996 35.901,188.261 35.728 C 188.484 35.581,188.667 35.328,188.667 35.166 C 188.667 34.989,188.834 34.827,189.083 34.765 C 189.388 34.688,189.500 34.549,189.500 34.247 C 189.500 33.948,189.590 33.833,189.826 33.833 C 190.073 33.833,190.177 33.682,190.256 33.208 C 190.414 32.264,190.421 32.251,190.764 32.251 C 190.968 32.250,191.103 32.115,191.137 31.875 C 191.170 31.641,191.342 31.462,191.595 31.399 C 191.883 31.327,192.000 31.182,192.000 30.899 C 192.000 30.660,192.098 30.500,192.244 30.500 C 192.567 30.500,192.833 29.978,192.833 29.344 C 192.833 28.910,192.896 28.833,193.250 28.833 C 193.583 28.833,193.667 28.750,193.667 28.417 C 193.667 28.086,193.751 28.000,194.072 28.000 C 194.386 28.000,194.494 27.896,194.550 27.542 C 194.589 27.290,194.613 32.015,194.602 38.042 L 194.583 49.000 199.208 49.000 L 203.833 49.000 203.833 30.580 L 203.833 12.161 199.625 12.205 C 196.407 12.240,195.412 12.299,195.396 12.458 C 195.384 12.573,195.366 12.742,195.354 12.833 C 195.343 12.925,195.144 13.000,194.913 13.000 C 194.556 13.000,194.505 13.062,194.569 13.417 C 194.636 13.783,194.586 13.833,194.158 13.833 C 193.756 13.833,193.678 13.897,193.710 14.196 C 193.739 14.462,193.638 14.587,193.333 14.662 C 193.077 14.724,192.897 14.901,192.865 15.122 C 192.833 15.342,192.672 15.499,192.448 15.531 C 192.220 15.564,192.064 15.721,192.031 15.950 C 192.002 16.152,191.834 16.364,191.656 16.420 C 191.479 16.476,191.290 16.723,191.236 16.969 C 191.064 17.761,191.004 17.863,190.666 17.952 C 190.451 18.008,190.333 18.179,190.333 18.436 C 190.333 18.749,190.245 18.833,189.917 18.833 C 189.587 18.833,189.500 18.917,189.500 19.238 C 189.500 19.532,189.396 19.658,189.125 19.697 C 188.919 19.726,188.741 19.844,188.729 19.958 C 188.718 20.073,188.699 20.279,188.688 20.417 C 188.676 20.554,188.517 20.667,188.333 20.667 C 188.150 20.667,187.991 20.723,187.981 20.792 C 187.971 20.860,187.937 21.134,187.906 21.401 C 187.813 22.196,187.699 22.366,187.334 22.250 C 187.062 22.164,187.000 22.220,187.000 22.554 C 187.000 22.852,186.886 22.992,186.583 23.068 C 186.279 23.145,186.167 23.284,186.167 23.587 C 186.167 23.839,186.071 24.000,185.923 24.000 C 185.605 24.000,185.333 24.519,185.333 25.127 C 185.333 25.520,185.264 25.607,184.958 25.597 C 184.669 25.586,184.571 25.688,184.531 26.042 C 184.489 26.402,184.391 26.500,184.072 26.500 C 183.720 26.500,183.667 26.577,183.667 27.079 C 183.667 27.514,183.562 27.727,183.250 27.932 C 182.998 28.097,182.833 28.362,182.833 28.603 C 182.833 28.915,182.745 29.000,182.417 29.000 C 182.086 29.000,182.000 29.084,182.000 29.405 C 182.000 29.664,181.880 29.849,181.667 29.917 C 181.483 29.975,181.316 30.111,181.294 30.220 C 181.272 30.328,181.216 26.329,181.169 21.333 L 181.083 12.250 176.244 12.206 C 172.620 12.173,171.354 12.213,171.202 12.364 M210.702 12.364 C 210.410 12.657,210.408 48.508,210.700 48.800 C 210.845 48.945,212.096 49.000,215.283 49.000 L 219.667 49.000 219.667 48.583 C 219.667 48.276,219.755 48.167,220.005 48.167 C 220.386 48.167,220.505 47.949,220.565 47.141 C 220.597 46.716,220.692 46.571,220.962 46.531 C 221.286 46.483,221.549 46.079,221.486 45.726 C 221.390 45.192,221.534 44.852,221.875 44.803 C 222.121 44.768,222.250 44.635,222.250 44.417 C 222.250 44.232,222.415 44.011,222.620 43.921 C 222.889 43.803,223.020 43.562,223.098 43.046 C 223.177 42.514,223.280 42.333,223.501 42.333 C 223.794 42.333,224.000 42.022,224.000 41.578 C 224.000 41.453,224.188 41.148,224.417 40.901 C 224.646 40.654,224.833 40.312,224.833 40.142 C 224.833 39.950,224.953 39.833,225.149 39.833 C 225.520 39.833,225.667 39.522,225.667 38.736 C 225.667 38.280,225.732 38.167,225.997 38.167 C 226.202 38.167,226.363 38.022,226.423 37.786 C 226.475 37.576,226.683 37.332,226.884 37.244 C 227.133 37.135,227.267 36.909,227.302 36.538 C 227.337 36.183,227.496 35.901,227.761 35.728 C 227.984 35.581,228.167 35.328,228.167 35.166 C 228.167 34.989,228.334 34.827,228.583 34.765 C 228.888 34.688,229.000 34.549,229.000 34.247 C 229.000 33.948,229.090 33.833,229.326 33.833 C 229.573 33.833,229.677 33.682,229.756 33.208 C 229.914 32.264,229.921 32.251,230.264 32.251 C 230.468 32.250,230.603 32.115,230.637 31.875 C 230.670 31.641,230.842 31.462,231.095 31.399 C 231.383 31.327,231.500 31.182,231.500 30.899 C 231.500 30.660,231.598 30.500,231.744 30.500 C 232.067 30.500,232.333 29.978,232.333 29.344 C 232.333 28.910,232.396 28.833,232.750 28.833 C 233.083 28.833,233.167 28.750,233.167 28.417 C 233.167 28.083,233.250 28.000,233.583 28.000 L 234.000 28.000 234.024 38.125 C 234.037 43.694,234.051 48.419,234.056 48.625 L 234.065 49.000 238.699 49.000 L 243.333 49.000 243.333 30.583 L 243.333 12.167 239.080 12.167 L 234.827 12.167 234.902 12.583 C 234.968 12.946,234.918 13.000,234.512 13.000 C 234.114 13.000,234.052 13.061,234.092 13.417 C 234.131 13.776,234.071 13.833,233.652 13.833 C 233.249 13.833,233.167 13.902,233.167 14.238 C 233.167 14.532,233.063 14.658,232.792 14.697 C 232.554 14.730,232.398 14.884,232.365 15.115 C 232.332 15.342,232.175 15.499,231.948 15.531 C 231.726 15.563,231.564 15.721,231.533 15.935 C 231.505 16.129,231.304 16.369,231.086 16.468 C 230.806 16.596,230.673 16.812,230.636 17.200 C 230.600 17.580,230.467 17.801,230.208 17.915 C 229.978 18.015,229.833 18.225,229.833 18.456 C 229.833 18.747,229.738 18.833,229.417 18.833 C 229.087 18.833,229.000 18.917,229.000 19.238 C 229.000 19.532,228.896 19.658,228.625 19.697 C 228.419 19.726,228.241 19.844,228.229 19.958 C 228.218 20.073,228.199 20.279,228.188 20.417 C 228.176 20.554,228.018 20.667,227.837 20.667 C 227.510 20.667,227.402 20.901,227.296 21.833 C 227.260 22.155,227.163 22.241,226.874 22.210 C 226.580 22.179,226.500 22.255,226.500 22.567 C 226.500 22.851,226.382 22.994,226.083 23.068 C 225.779 23.145,225.667 23.284,225.667 23.587 C 225.667 23.839,225.571 24.000,225.423 24.000 C 225.105 24.000,224.833 24.519,224.833 25.127 C 224.833 25.520,224.764 25.607,224.458 25.597 C 224.169 25.586,224.071 25.688,224.031 26.042 C 223.989 26.402,223.891 26.500,223.572 26.500 C 223.220 26.500,223.167 26.577,223.167 27.079 C 223.167 27.514,223.062 27.727,222.750 27.932 C 222.498 28.097,222.333 28.362,222.333 28.603 C 222.333 28.915,222.245 29.000,221.917 29.000 C 221.586 29.000,221.500 29.084,221.500 29.405 C 221.500 29.664,221.380 29.849,221.167 29.917 C 220.983 29.975,220.816 30.111,220.794 30.220 C 220.772 30.328,220.716 26.329,220.669 21.333 L 220.583 12.250 215.744 12.206 C 212.120 12.173,210.854 12.213,210.702 12.364 M262.875 12.277 C 262.710 12.344,262.667 16.063,262.667 30.091 C 262.667 50.308,262.482 48.167,264.227 48.167 C 265.051 48.167,265.149 48.205,265.197 48.542 L 265.250 48.917 273.583 48.961 C 282.526 49.008,282.667 49.001,282.667 48.497 C 282.667 48.199,282.782 48.167,283.837 48.167 C 284.933 48.167,285.018 48.140,285.167 47.750 C 285.303 47.391,285.428 47.333,286.076 47.333 C 286.738 47.333,286.839 47.284,286.932 46.917 C 287.007 46.618,287.149 46.500,287.435 46.500 C 287.749 46.500,287.833 46.412,287.833 46.083 C 287.833 45.773,287.921 45.667,288.179 45.667 C 288.627 45.667,289.500 44.794,289.500 44.346 C 289.500 44.088,289.606 44.000,289.917 44.000 C 290.245 44.000,290.333 43.915,290.333 43.601 C 290.333 43.315,290.451 43.173,290.750 43.098 C 291.144 42.999,291.167 42.931,291.167 41.842 C 291.167 40.774,291.194 40.686,291.542 40.637 C 291.916 40.583,291.917 40.577,291.961 36.916 L 292.006 33.248 291.628 33.083 C 291.297 32.937,291.244 32.777,291.201 31.792 C 291.154 30.722,291.131 30.667,290.742 30.667 C 290.397 30.667,290.333 30.587,290.333 30.156 C 290.333 29.530,290.068 29.000,289.756 29.000 C 289.628 29.000,289.499 28.831,289.470 28.625 C 289.437 28.390,289.283 28.231,289.057 28.199 C 288.839 28.168,288.658 27.988,288.596 27.740 C 288.496 27.342,288.165 27.232,287.292 27.305 C 287.089 27.322,287.000 27.209,287.000 26.934 C 287.000 26.665,286.880 26.507,286.625 26.438 C 286.082 26.293,285.800 26.311,285.907 26.484 C 285.958 26.568,285.850 26.596,285.667 26.548 C 285.454 26.493,285.333 26.321,285.333 26.075 C 285.333 25.607,285.055 25.516,283.804 25.575 C 282.944 25.616,282.849 25.586,282.764 25.245 C 282.644 24.768,282.291 24.700,280.333 24.776 C 279.462 24.810,278.675 24.831,278.583 24.824 C 278.492 24.816,277.123 24.771,275.542 24.724 L 272.667 24.639 272.667 22.153 L 272.667 19.667 280.667 19.667 L 288.667 19.667 288.667 15.917 L 288.667 12.167 275.875 12.180 C 268.840 12.187,262.990 12.231,262.875 12.277 M292.868 13.375 C 292.913 14.484,292.948 14.588,293.292 14.637 C 293.662 14.689,293.694 14.770,293.731 15.742 C 293.746 16.122,293.845 16.257,294.163 16.332 C 294.526 16.418,294.578 16.522,294.583 17.173 C 294.588 17.852,294.627 17.921,295.031 17.968 C 295.445 18.016,295.470 18.068,295.432 18.792 C 295.392 19.542,295.850 20.446,296.169 20.248 C 296.235 20.208,296.284 20.379,296.278 20.629 C 296.262 21.368,296.480 21.972,296.784 22.030 C 296.985 22.069,297.080 22.278,297.110 22.748 C 297.149 23.355,297.549 23.925,297.819 23.759 C 297.876 23.723,297.931 24.001,297.941 24.376 C 297.960 25.111,298.329 25.542,298.808 25.389 C 299.022 25.321,299.033 25.338,298.857 25.463 C 298.502 25.717,299.282 27.321,299.650 27.094 C 299.718 27.052,299.741 27.239,299.701 27.509 C 299.637 27.944,299.678 28.000,300.056 28.000 C 300.453 28.000,300.486 28.060,300.533 28.875 C 300.578 29.661,300.621 29.749,300.958 29.737 C 301.165 29.729,301.339 29.804,301.347 29.903 C 301.354 30.002,301.373 30.383,301.389 30.750 C 301.412 31.304,301.480 31.426,301.792 31.470 C 302.116 31.516,302.167 31.623,302.167 32.258 C 302.167 32.899,302.219 33.007,302.575 33.096 C 302.914 33.181,302.991 33.315,303.033 33.891 C 303.075 34.464,303.148 34.593,303.458 34.637 C 303.750 34.678,303.833 34.799,303.833 35.178 C 303.833 35.585,303.901 35.667,304.241 35.667 C 304.609 35.667,304.653 35.744,304.699 36.458 C 304.745 37.179,304.787 37.250,305.167 37.247 C 305.556 37.243,305.579 37.290,305.525 37.954 C 305.474 38.572,305.518 38.686,305.858 38.822 L 306.250 38.979 305.875 38.989 C 305.589 38.997,305.500 39.099,305.500 39.417 C 305.500 39.750,305.417 39.833,305.083 39.833 C 304.750 39.833,304.667 39.917,304.667 40.250 C 304.667 40.631,304.451 40.764,303.958 40.686 C 303.890 40.676,303.833 40.854,303.833 41.083 C 303.833 41.486,303.795 41.500,302.708 41.509 C 299.165 41.535,297.077 41.467,297.027 41.323 C 296.651 40.248,295.467 40.608,295.435 41.806 C 295.424 42.231,295.338 42.499,295.213 42.500 C 294.790 42.500,294.560 43.398,294.586 44.950 C 294.611 46.482,294.610 46.483,294.180 46.533 C 293.763 46.582,293.750 46.618,293.755 47.750 L 293.759 48.917 294.554 48.968 C 295.223 49.011,295.374 49.084,295.506 49.431 L 295.662 49.843 301.373 49.797 L 307.083 49.750 307.137 49.375 C 307.184 49.044,307.286 49.000,308.012 49.000 C 308.772 49.000,308.833 48.970,308.833 48.592 C 308.833 48.225,308.910 48.180,309.625 48.134 C 310.301 48.091,310.424 48.028,310.470 47.708 C 310.508 47.437,310.635 47.333,310.928 47.333 C 311.249 47.333,311.333 47.247,311.333 46.917 C 311.333 46.583,311.417 46.500,311.750 46.500 C 312.080 46.500,312.167 46.416,312.167 46.095 C 312.167 45.802,312.270 45.675,312.542 45.637 C 312.774 45.604,312.936 45.449,312.967 45.231 C 312.995 45.037,313.201 44.795,313.425 44.693 C 313.760 44.541,313.833 44.386,313.833 43.837 C 313.833 43.233,313.875 43.167,314.250 43.167 C 314.581 43.167,314.667 43.083,314.667 42.758 C 314.667 42.533,314.854 42.161,315.083 41.932 C 315.345 41.670,315.500 41.327,315.500 41.008 C 315.500 40.673,315.583 40.500,315.744 40.500 C 316.115 40.500,316.333 39.948,316.333 39.011 C 316.333 38.221,316.360 38.167,316.750 38.167 C 317.138 38.167,317.167 38.110,317.167 37.345 C 317.167 36.620,317.211 36.517,317.542 36.470 C 317.868 36.424,317.923 36.304,317.967 35.552 C 318.010 34.807,318.067 34.680,318.383 34.635 C 318.703 34.590,318.761 34.456,318.833 33.583 C 318.903 32.749,318.979 32.556,319.292 32.419 C 319.605 32.281,319.667 32.124,319.667 31.460 C 319.667 30.884,319.732 30.667,319.905 30.667 C 320.317 30.667,320.633 30.198,320.633 29.587 C 320.633 29.185,320.747 28.904,320.991 28.707 C 321.341 28.423,321.465 27.963,321.489 26.875 C 321.497 26.455,321.572 26.333,321.822 26.333 C 322.115 26.333,322.383 25.915,322.319 25.559 C 322.234 25.082,322.364 24.500,322.557 24.500 C 322.883 24.500,323.167 23.760,323.167 22.909 C 323.167 22.294,323.220 22.167,323.479 22.167 C 323.830 22.167,324.000 21.593,324.000 20.407 C 324.000 19.790,324.052 19.682,324.375 19.637 C 324.712 19.589,324.755 19.477,324.800 18.540 C 324.842 17.646,324.908 17.459,325.258 17.229 C 325.599 17.006,325.667 16.828,325.667 16.147 C 325.667 15.578,325.734 15.333,325.890 15.333 C 326.262 15.333,326.500 14.549,326.500 13.325 L 326.500 12.167 321.440 12.167 L 316.379 12.167 316.423 12.569 C 316.457 12.874,316.370 12.996,316.067 13.073 C 315.638 13.180,315.636 13.191,315.606 14.833 C 315.589 15.791,315.538 15.950,315.168 16.206 C 314.681 16.542,314.583 17.452,314.996 17.794 C 315.218 17.979,315.219 17.999,315.000 17.961 C 314.862 17.937,314.740 18.029,314.728 18.167 C 314.715 18.304,314.696 18.510,314.686 18.625 C 314.675 18.740,314.525 18.833,314.351 18.833 C 313.939 18.833,313.856 19.087,313.924 20.133 C 313.980 20.990,313.957 21.043,313.256 21.632 C 313.078 21.781,313.000 22.152,313.000 22.844 C 313.000 23.755,312.964 23.855,312.583 24.000 C 312.194 24.148,312.167 24.234,312.167 25.318 C 312.167 26.393,312.140 26.481,311.792 26.530 C 311.448 26.579,311.413 26.683,311.368 27.792 C 311.321 28.950,311.302 29.000,310.909 29.000 C 310.530 29.000,310.500 28.939,310.500 28.185 C 310.500 27.454,310.457 27.359,310.083 27.265 C 309.719 27.173,309.667 27.069,309.667 26.438 C 309.667 25.898,309.561 25.602,309.250 25.266 C 309.021 25.018,308.833 24.637,308.833 24.419 C 308.833 23.808,308.537 23.167,308.254 23.167 C 308.072 23.167,307.999 22.990,307.997 22.542 C 307.995 21.842,307.880 21.607,307.468 21.455 C 307.277 21.385,307.170 21.123,307.135 20.634 C 307.095 20.083,306.998 19.879,306.716 19.755 C 306.428 19.629,306.338 19.431,306.299 18.839 C 306.258 18.200,306.192 18.075,305.875 18.030 C 305.552 17.984,305.500 17.877,305.500 17.258 C 305.500 16.674,305.421 16.487,305.083 16.265 C 304.756 16.051,304.667 15.852,304.667 15.340 C 304.667 14.500,304.410 13.833,304.087 13.833 C 303.909 13.833,303.833 13.663,303.833 13.264 C 303.833 12.094,304.204 12.167,298.225 12.167 L 292.819 12.167 292.868 13.375 M329.200 12.367 C 328.910 12.657,328.910 48.510,329.200 48.800 C 329.346 48.946,330.689 49.000,334.200 49.000 L 339.000 49.000 339.000 41.500 L 339.000 34.000 344.915 34.000 L 350.830 34.000 350.873 41.458 L 350.917 48.917 355.931 48.961 C 360.317 48.999,360.944 48.973,360.944 48.752 C 360.944 48.614,360.863 48.499,360.764 48.497 C 360.657 48.496,360.669 48.441,360.792 48.362 C 360.958 48.257,360.993 44.521,360.959 30.240 L 360.917 12.250 355.917 12.250 L 350.917 12.250 350.873 19.292 L 350.830 26.333 344.915 26.333 L 339.000 26.333 339.000 19.250 L 339.000 12.167 334.200 12.167 C 330.689 12.167,329.346 12.220,329.200 12.367 M365.167 15.917 L 365.167 19.667 370.583 19.667 L 376.000 19.667 376.023 34.042 C 376.035 41.948,376.045 48.548,376.045 48.708 C 376.044 48.979,376.375 49.000,380.688 49.000 L 385.333 49.000 385.333 34.333 L 385.333 19.667 390.458 19.647 C 393.277 19.637,395.715 19.642,395.875 19.658 C 396.145 19.685,396.167 19.409,396.167 15.927 L 396.167 12.167 380.667 12.167 L 365.167 12.167 365.167 15.917 M243.125 39.471 C 243.100 44.299,243.080 40.300,243.080 30.583 C 243.080 20.867,243.100 16.916,243.125 21.804 C 243.150 26.693,243.150 34.643,243.125 39.471 M19.920 20.833 C 19.917 21.220,19.974 21.250,20.709 21.250 C 21.461 21.250,21.501 21.273,21.500 21.708 C 21.500 22.086,21.573 22.167,21.917 22.167 L 22.333 22.167 22.333 24.333 C 22.333 25.556,22.266 26.500,22.179 26.500 C 21.863 26.500,21.500 27.039,21.500 27.506 C 21.500 27.959,21.449 27.995,20.667 28.099 C 20.003 28.187,19.833 28.273,19.833 28.521 C 19.833 28.920,20.106 28.869,17.333 28.984 C 14.989 29.080,14.915 29.095,14.863 29.458 C 14.816 29.795,14.717 29.833,13.905 29.833 L 13.000 29.833 13.000 25.174 L 13.000 20.515 14.208 20.466 C 14.873 20.439,16.431 20.417,17.670 20.417 L 19.923 20.417 19.920 20.833 M186.454 24.500 C 186.429 24.835,186.308 24.919,186.121 24.732 C 186.066 24.677,186.109 24.529,186.218 24.405 C 186.479 24.109,186.483 24.111,186.454 24.500 M273.878 32.667 C 274.086 32.910,274.401 33.010,275.040 33.037 C 276.637 33.104,277.406 33.129,278.458 33.148 C 279.377 33.164,279.500 33.205,279.500 33.494 C 279.500 33.762,279.653 33.842,280.333 33.932 C 281.038 34.026,281.167 34.098,281.167 34.399 C 281.167 34.608,281.321 34.822,281.542 34.919 C 282.325 35.262,282.127 39.000,281.326 39.000 C 281.206 39.000,281.155 39.178,281.196 39.458 C 281.264 39.915,281.261 39.916,280.382 39.860 C 279.529 39.804,279.500 39.817,279.500 40.235 L 279.500 40.667 277.542 40.684 C 276.465 40.694,275.471 40.719,275.333 40.739 C 275.196 40.760,274.952 40.789,274.792 40.805 C 274.621 40.822,274.500 40.971,274.500 41.167 C 274.500 41.596,274.232 41.599,274.120 41.171 C 274.059 40.938,273.835 40.811,273.350 40.733 L 272.667 40.624 272.667 36.479 L 272.667 32.333 273.130 32.333 C 273.386 32.333,273.720 32.482,273.878 32.667 M74.264 45.667 C 74.394 45.667,74.500 45.744,74.500 45.839 C 74.500 45.956,74.393 45.954,74.167 45.833 C 73.983 45.735,73.839 45.564,73.846 45.452 C 73.856 45.300,73.880 45.301,73.944 45.458 C 73.990 45.573,74.134 45.667,74.264 45.667 " stroke="none" fill="#ec4c0c" fill-rule="evenodd"></path><path id="path1" d="M243.080 30.583 C 243.080 40.300,243.100 44.299,243.125 39.471 C 243.150 34.643,243.150 26.693,243.125 21.804 C 243.100 16.916,243.080 20.867,243.080 30.583 M186.218 24.405 C 186.109 24.529,186.066 24.677,186.121 24.732 C 186.308 24.919,186.429 24.835,186.454 24.500 C 186.483 24.111,186.479 24.109,186.218 24.405 M277.881 24.770 C 278.008 24.897,279.333 24.889,279.462 24.760 C 279.513 24.709,279.156 24.667,278.667 24.667 C 278.178 24.667,277.824 24.713,277.881 24.770 M280.627 24.785 C 280.834 24.824,281.134 24.823,281.294 24.781 C 281.453 24.739,281.283 24.707,280.917 24.709 C 280.550 24.711,280.420 24.745,280.627 24.785 M194.579 37.833 C 194.579 43.746,194.599 46.165,194.625 43.208 C 194.650 40.252,194.650 35.415,194.625 32.458 C 194.599 29.502,194.579 31.921,194.579 37.833 M73.846 45.452 C 73.839 45.564,73.983 45.735,74.167 45.833 C 74.393 45.954,74.500 45.956,74.500 45.839 C 74.500 45.744,74.394 45.667,74.264 45.667 C 74.134 45.667,73.990 45.573,73.944 45.458 C 73.880 45.301,73.856 45.300,73.846 45.452 M293.705 47.833 C 293.705 48.154,293.740 48.285,293.782 48.125 C 293.823 47.965,293.823 47.702,293.782 47.542 C 293.740 47.381,293.705 47.512,293.705 47.833 " stroke="none" fill="#ec540c" fill-rule="evenodd"></path></g></svg>